<svg version="1.2" xmlns="http://www.w3.org/2000/svg" viewBox="0 0 191 36" width="191" height="36"><defs><clipPath clipPathUnits="userSpaceOnUse" id="cp1"><path d="m0 0h190.8v36h-190.8z"/></clipPath><linearGradient id="P" gradientUnits="userSpaceOnUse"/><linearGradient id="g1" x2="1" href="#P" gradientTransform="matrix(-0.489,28.061,-24.211,-0.422,23.457,-4.697)"><stop stop-color="#0098a6"/><stop offset="1" stop-color="#002d4d"/></linearGradient><linearGradient id="g2" x2="1" href="#P" gradientTransform="matrix(0,-34.354,32.596,0,8.514,31.011)"><stop stop-color="#0098a6"/><stop offset="1" stop-color="#002d4d"/></linearGradient><linearGradient id="g3" x2="1" href="#P" gradientTransform="matrix(17.053,32.448,-60.282,31.682,3.936,-0.042)"><stop offset=".27" stop-color="#0098a6"/><stop offset="1" stop-color="#002d4d"/></linearGradient><linearGradient id="g4" x2="1" href="#P" gradientTransform="matrix(-3.742,20.075,-10.879,-2.028,15.663,8.475)"><stop stop-color="#0098a6"/><stop offset="1" stop-color="#002d4d"/></linearGradient><linearGradient id="g5" x2="1" href="#P" gradientTransform="matrix(0,27.055,-8.735,0,18.189,-0.008)"><stop stop-color="#0098a6"/><stop offset="1" stop-color="#002d4d"/></linearGradient><linearGradient id="g6" x2="1" href="#P" gradientTransform="matrix(-18.043,12.845,-6.058,-8.509,19.686,12.091)"><stop offset=".27" stop-color="#0098a6"/><stop offset="1" stop-color="#002d4d"/></linearGradient><linearGradient id="g7" x2="1" href="#P" gradientTransform="matrix(19.555,35.5,-61.296,33.764,-2.011,5.954)"><stop offset=".27" stop-color="#0098a6"/><stop offset="1" stop-color="#002d4d"/></linearGradient><linearGradient id="g8" x2="1" href="#P" gradientTransform="matrix(50.888,40.793,-13.176,16.437,-8.856,2.907)"><stop offset=".09" stop-color="#26ffed"/><stop offset=".39" stop-color="#18c4cd"/><stop offset=".63" stop-color="#0b90b1"/><stop offset=".87" stop-color="#0370a0"/><stop offset=".99" stop-color="#006499"/></linearGradient><linearGradient id="g9" x2="1" href="#P" gradientTransform="matrix(61.315,31.128,-12.533,24.687,-13.898,15.811)"><stop offset=".1" stop-color="#26ffed"/><stop offset=".38" stop-color="#18c4cd"/><stop offset=".63" stop-color="#0b90b1"/><stop offset=".87" stop-color="#0370a0"/><stop offset=".99" stop-color="#006499"/></linearGradient><linearGradient id="g10" x2="1" href="#P" gradientTransform="matrix(-14.55,57.395,-112.081,-28.414,19.16,-9.988)"><stop stop-color="#26ffed"/><stop offset=".31" stop-color="#18c4cd"/><stop offset=".63" stop-color="#0b90b1"/><stop offset=".87" stop-color="#0370a0"/><stop offset="1" stop-color="#006499"/></linearGradient><linearGradient id="g11" x2="1" href="#P" gradientTransform="matrix(33.576,-64.482,112.425,58.541,9.464,24.926)"><stop stop-color="#26ffed"/><stop offset=".31" stop-color="#18c4cd"/><stop offset=".63" stop-color="#0b90b1"/><stop offset=".87" stop-color="#0370a0"/><stop offset="1" stop-color="#006499"/></linearGradient><linearGradient id="g12" x2="1" href="#P" gradientTransform="matrix(-0.881,23.131,-7.591,-0.289,27.335,-1.465)"><stop stop-color="#0098a6"/><stop offset="1" stop-color="#002d4d"/></linearGradient><linearGradient id="g13" x2="1" href="#P" gradientTransform="matrix(68.034,-11.996,14.015,79.487,-17.113,29.777)"><stop stop-color="#26ffed"/><stop offset=".31" stop-color="#18c4cd"/><stop offset=".63" stop-color="#0b90b1"/><stop offset=".87" stop-color="#0370a0"/><stop offset="1" stop-color="#006499"/></linearGradient></defs><style>tspan{white-space:pre}.a{fill:url(#g1)}.b{fill:url(#g2)}.c{fill:url(#g3)}.d{fill:url(#g4)}.e{fill:url(#g5)}.f{fill:url(#g6)}.g{fill:url(#g7)}.h{fill:url(#g8)}.i{fill:url(#g9)}.j{fill:url(#g10)}.k{fill:url(#g11)}.l{fill:url(#g12)}.m{fill:url(#g13)}.n{font-size: 32px;fill: #ffffff;font-weight: 400;font-family: "DejaVuSans", "DejaVu Sans"}</style><g clip-path="url(#cp1)"><path class="a" d="m24.4 17c3.2-1.9 6.1-3.5 6.1-3.5l-14.6-8.2v16.1c0.5-0.2 1.8-0.8 3.5-1.7l5 3v-5.7z"/><path class="b" d="m15.9 5.3l-14.7 7.6c0 0 12.8 7.3 14.7 7.9z"/><path class="c" d="m24.4 22.6l-8.6-4.9-11.2 6.5 11.2 6.5 11.3-6.5v-3.1z"/><path class="d" d="m11.2 12.7v11.6l4.7 2.7v-11.6z"/><path class="e" d="m15.9 15.4v11.6l4.6-2.7v-11.6z"/><path class="f" d="m8.9 18.1l-4.3 2.4v3.7l6.9-4z"/><path class="g" d="m9.1 17.9l-4.5 2.6-4.5-2.6 4.5-2.5z"/><path class="h" d="m0 9.1v5.3l15.9 9.2v-5.3z"/><path class="i" d="m4.6 20.5l-4.6-2.7v9l15.9 9.2v-5.3l-11.3-6.5z"/><path class="j" d="m15.9 0l-15.9 9.1 4.6 2.7 11.2-6.5 8.6 4.9 4.6-2.6z"/><path class="k" d="m11.2 12.7l4.7 2.6 4.5-2.6-4.6-2.7z"/><path class="l" d="m24.4 10.3v12.3l4.6-2.6v-12.4z"/><path class="m" d="m15.8 18.3v5.3l11.2-6.5v7.1l-11.2 6.5v5.3l15.9-9.1v-17.8z"/><text style="transform:matrix(1,0,0,1,39.5,26)" ><tspan x="0" y="0" class="n">S</tspan><tspan  y="0" class="n">y</tspan><tspan  y="0" class="n">n</tspan><tspan  y="0" class="n">e</tspan><tspan  y="0" class="n">r</tspan><tspan  y="0" class="n">g</tspan><tspan  y="0" class="n">y</tspan><tspan  y="0" class="n">F</tspan><tspan  y="0" class="n">i
</tspan></text></g></svg>