<svg width="16" height="16" viewBox="0 0 16 16" fill="none" xmlns="http://www.w3.org/2000/svg">
<path fill-rule="evenodd" clip-rule="evenodd" d="M3.51735 3.1875C3.29653 2.05 4.17981 1 5.32808 1C6.34385 1 7.18297 1.83125 7.18297 2.8375V5.1125C7.44795 5.1125 7.71293 5.06875 7.97792 5.06875C8.2429 5.06875 8.46372 5.06875 8.72871 5.1125V2.8375C8.72871 1.83125 9.56782 1 10.5836 1C11.7319 1 12.6151 2.05 12.4385 3.1875L11.9527 5.85625C13.6751 6.6 15 7.9125 15 9.53125V10.5375C15 11.8937 14.1167 13.0312 12.836 13.775C11.5552 14.5625 9.87697 15 7.97792 15C6.07886 15 4.40063 14.5625 3.11987 13.775C1.88328 13.0312 1 11.8937 1 10.5375V9.53125C1 7.9125 2.28076 6.6 4.00315 5.85625L3.51735 3.1875ZM11.2902 6.20625L11.8644 3.05625C11.9968 2.26875 11.4227 1.525 10.5836 1.525C9.87697 1.525 9.30284 2.09375 9.30284 2.79375V5.68125C9.12618 5.6375 8.90536 5.6375 8.72871 5.6375C8.46372 5.6375 8.2429 5.59375 7.97792 5.59375C7.71293 5.59375 7.44795 5.59375 7.18297 5.6375C7.00631 5.6375 6.78549 5.68125 6.60883 5.68125V2.8375C6.60883 2.1375 6.0347 1.56875 5.32808 1.56875C4.53312 1.56875 3.91483 2.3125 4.09148 3.1L4.66562 6.25C2.81073 6.95 1.57413 8.175 1.57413 9.575V10.5813C1.57413 12.725 4.4448 14.475 7.97792 14.475C11.511 14.475 14.3817 12.725 14.3817 10.5813V9.575C14.4259 8.13125 13.1893 6.90625 11.2902 6.20625Z" fill="#633001"/>
<path d="M13.9588 10.8214C13.9588 12.5714 11.2784 14 7.97938 14C4.68041 14 2 12.5714 2 10.8214V10H14V10.8214H13.9588Z" fill="#FEDC90"/>
<path fill-rule="evenodd" clip-rule="evenodd" d="M4.31724 3.41544C4.15172 2.6875 4.73103 2 5.47586 2C6.13793 2 6.67586 2.52574 6.67586 3.17279V5.84191C7.08966 5.80147 7.50345 5.76103 7.95862 5.76103C8.37241 5.76103 8.78621 5.80147 9.2 5.84191V3.17279C9.2 2.52574 9.73793 2 10.4 2C11.1448 2 11.7241 2.6875 11.6 3.41544L11.0621 6.32721C12.8 6.97426 14 8.10662 14 9.40074C14 11.3824 11.3103 13 8 13C4.68966 13 2 11.3824 2 9.40074C2 8.10662 3.15862 6.97426 4.89655 6.32721L4.31724 3.41544Z" fill="#D1884F"/>
<path d="M6 9C6 9.54167 5.78125 10 5.5 10C5.21875 10 5 9.54167 5 9C5 8.45833 5.21875 8 5.5 8C5.78125 8 6 8.45833 6 9Z" fill="#633001"/>
<path d="M11 9C11 9.54167 10.7812 10 10.5 10C10.2187 10 10 9.54167 10 9C10 8.45833 10.2187 8 10.5 8C10.7812 8 11 8.45833 11 9Z" fill="#633001"/>
</svg>
