<svg width="45" height="18" viewBox="0 0 45 18" fill="none" xmlns="http://www.w3.org/2000/svg">
<path d="M42.1331 1.2002C40.8461 1.2002 39.1205 2.0828 37.9613 3.6002H37.0001C36.3059 3.6002 35.9081 4.1186 35.6339 4.6664L35.2661 5.4002H37.0001L37.9001 6.3002L38.8001 7.2002V8.9336L39.5339 8.5664C40.0817 8.2928 40.6001 7.8944 40.6001 7.2002V6.239C42.1175 5.0798 43.0001 3.3536 43.0001 2.0672V1.2002H42.1331ZM40.6001 3.0002C40.7592 3.0002 40.9119 3.06341 41.0244 3.17593C41.1369 3.28845 41.2001 3.44107 41.2001 3.6002C41.2001 3.75933 41.1369 3.91194 41.0244 4.02446C40.9119 4.13698 40.7592 4.2002 40.6001 4.2002C40.441 4.2002 40.2884 4.13698 40.1758 4.02446C40.0633 3.91194 40.0001 3.75933 40.0001 3.6002C40.0001 3.44107 40.0633 3.28845 40.1758 3.17593C40.2884 3.06341 40.441 3.0002 40.6001 3.0002Z" fill="url(#paint0_linear_46115_135528)"/>
<path opacity="0.4" d="M35.8843 7.45075C27.0072 16.1643 8.86117 16.422 0.547238 16.065C23.1752 17.6245 32.2311 11.5548 36.652 8.31787C36.9411 8.10621 36.9746 7.69613 36.7156 7.44858C36.4854 7.22857 36.1115 7.2277 35.8843 7.45075Z" fill="url(#paint1_linear_46115_135528)"/>
<path d="M40.2002 12L40.7404 13.4598L42.2002 14L40.7404 14.5402L40.2002 16L39.66 14.5402L38.2002 14L39.66 13.4598L40.2002 12Z" fill="url(#paint2_linear_46115_135528)"/>
<defs>
<linearGradient id="paint0_linear_46115_135528" x1="35.2661" y1="8.9336" x2="43.0001" y2="8.9336" gradientUnits="userSpaceOnUse">
<stop stop-color="#FF9999"/>
<stop offset="1" stop-color="#D982D9"/>
</linearGradient>
<linearGradient id="paint1_linear_46115_135528" x1="0.579514" y1="16.7449" x2="37.5379" y2="14.9906" gradientUnits="userSpaceOnUse">
<stop stop-color="#FF9999"/>
<stop offset="1" stop-color="#D982D9"/>
</linearGradient>
<linearGradient id="paint2_linear_46115_135528" x1="38.2002" y1="16" x2="42.2002" y2="16" gradientUnits="userSpaceOnUse">
<stop stop-color="#FF9999"/>
<stop offset="1" stop-color="#D982D9"/>
</linearGradient>
</defs>
</svg>
