<svg width="297" height="56" viewBox="0 0 297 56" fill="none" xmlns="http://www.w3.org/2000/svg">
<g clip-path="url(#clip0_31180_103410)">
<path d="M17.9258 19.712L25.1582 23.912L32.279 19.712L25.0186 15.652L17.9258 19.712Z" fill="#94B8BF"/>
<path d="M7.62075 18.424H7.73245L25.0177 8.26L38.2819 15.96L45.5143 11.76L25.0177 0L0.5 14.224V22.512L25.0177 36.736L42.4147 26.572V37.66L25.0177 47.712L7.73245 37.66V31.948L0.5 27.776V41.804L25.0177 56L49.6472 41.776V14.224L25.0177 28.448L7.62075 18.424Z" fill="#94B8BF"/>
<path d="M71.338 36.561H89.1818C91.6391 36.561 92.5606 34.825 92.5606 32.081C92.5606 30.345 92.1976 28.693 88.9863 27.601L76.3644 23.401C72.5108 22.113 70.8633 19.929 70.8633 15.561C70.8633 10.997 73.0693 8.08501 78.1795 8.08501H95.4648V11.557H78.9055C76.4482 11.557 75.2474 12.649 75.2474 15.673C75.2474 17.409 75.4429 19.061 78.2633 20.041L90.3267 24.045C94.6271 25.417 97.0006 27.041 97.0006 32.081C97.0006 36.449 95.2693 40.005 90.3267 40.005H71.3101L71.338 36.561Z" fill="#94B8BF"/>
<path d="M107.445 47.873H103.424L107.166 40.117L96.666 15.953H100.687L109.204 35.917L117.972 15.953H121.994L107.445 47.873Z" fill="#94B8BF"/>
<path d="M123.724 19.789C123.724 17.241 124.813 15.785 127.466 15.785H136.151C141.373 15.785 144.277 18.053 144.277 23.625V39.949H140.479V24.437C140.479 21.161 139.278 18.977 135.62 18.977H128.946C128.025 18.977 127.494 19.341 127.494 20.517V40.033H123.641V19.789H123.724Z" fill="#94B8BF"/>
<path d="M149.527 40.033V12.593C149.527 9.20501 151.259 8.11301 153.995 8.11301H173.291V11.585H155.838C153.995 11.585 153.744 12.145 153.744 13.769V22.337H168.013V25.809H153.744V40.033H149.527Z" fill="#94B8BF"/>
<path d="M193.871 36.113C193.871 38.661 192.782 40.117 190.129 40.117H181.165C175.943 40.117 173.039 37.849 173.039 32.277V15.953H176.893V31.549C176.893 34.825 178.093 37.009 181.752 37.009H188.705C189.626 37.009 190.157 36.645 190.157 35.469V15.953H194.01V36.113C193.982 36.113 193.871 36.113 193.871 36.113Z" fill="#94B8BF"/>
<path d="M207.693 40.033C201.661 40.033 199.93 37.121 199.93 32.277V18.949H196.355V15.841H199.93V8.11301H203.783V15.869H210.541V18.977H203.783V32.025C203.783 35.777 205.235 36.869 209.005 36.869H210.569V39.977L207.693 40.033Z" fill="#94B8BF"/>
<path d="M233.859 36.113C233.859 38.661 232.77 40.117 230.117 40.117H221.153C215.931 40.117 213.027 37.849 213.027 32.277V15.953H216.881V31.549C216.881 34.825 218.082 37.009 221.74 37.009H228.693C229.615 37.009 230.145 36.645 230.145 35.469V15.953H233.999L233.859 36.113Z" fill="#94B8BF"/>
<path d="M238.41 24.633C238.41 18.697 241.342 15.981 247.29 15.981H249.943V19.089H248.016C243.8 19.089 242.264 21.273 242.264 25.641V40.145H238.41V24.633Z" fill="#94B8BF"/>
<path d="M259.382 40.033C252.149 40.033 250.697 35.301 250.697 28.077C250.697 19.229 253.546 15.673 261.755 15.673C268.15 15.673 272.813 17.773 272.813 25.053C272.813 27.797 272.004 29.253 269.155 29.253H254.69C254.69 33.173 255.417 37.009 260.275 37.009H272.171V40.117L259.382 40.033ZM267.508 26.089C268.429 26.089 268.597 25.361 268.597 24.913V24.717C268.597 20.153 265.665 18.697 261.644 18.697C256.701 18.697 254.607 20.601 254.607 26.089H267.508Z" fill="#94B8BF"/>
<path d="M275.83 36.925H289.541C291.551 36.925 292.473 35.833 292.473 33.929C292.473 31.381 290.267 30.933 286.525 30.009L282.057 28.917C277.477 27.825 275.383 26.005 275.383 21.889C275.383 17.773 277.673 15.869 281.973 15.869H295.042V18.977H282.42C280.214 18.977 279.32 19.705 279.32 21.889C279.32 24.521 281.163 25.277 283.788 25.893L288.647 27.069C293.506 28.245 296.522 29.169 296.522 33.817C296.522 37.569 295.153 39.921 290.574 39.921H275.858V36.925H275.83Z" fill="#94B8BF"/>
</g>
<defs>
<clipPath id="clip0_31180_103410">
<rect width="296" height="56" fill="white" transform="translate(0.5)"/>
</clipPath>
</defs>
</svg>
